<svg width="34" height="34" viewBox="0 0 34 34" fill="none" xmlns="http://www.w3.org/2000/svg">
<path fill-rule="evenodd" clip-rule="evenodd" d="M17 26.2725C22.1212 26.2725 26.2727 22.121 26.2727 16.9998C26.2727 11.8786 22.1212 7.72705 17 7.72705C11.8788 7.72705 7.72729 11.8786 7.72729 16.9998C7.72729 22.121 11.8788 26.2725 17 26.2725ZM17 23.1816C20.4141 23.1816 23.1818 20.4138 23.1818 16.9998C23.1818 13.5857 20.4141 10.818 17 10.818C13.5859 10.818 10.8182 13.5857 10.8182 16.9998C10.8182 20.4138 13.5859 23.1816 17 23.1816Z" fill="#FF3131"/>
<path d="M26.2727 6.18164C25.4192 6.18164 24.7273 6.87357 24.7273 7.7271C24.7273 8.58062 25.4192 9.27255 26.2727 9.27255C27.1263 9.27255 27.8182 8.58062 27.8182 7.7271C27.8182 6.87357 27.1263 6.18164 26.2727 6.18164Z" fill="#FF3131"/>
<path fill-rule="evenodd" clip-rule="evenodd" d="M1.01067 5.063C0 7.04655 0 9.64316 0 14.8364V19.1636C0 24.3568 0 26.9535 1.01067 28.9369C1.89967 30.6818 3.31821 32.1003 5.063 32.9893C7.04655 34 9.64316 34 14.8364 34H19.1636C24.3568 34 26.9535 34 28.9369 32.9893C30.6818 32.1003 32.1003 30.6818 32.9893 28.9369C34 26.9535 34 24.3568 34 19.1636V14.8364C34 9.64316 34 7.04655 32.9893 5.063C32.1003 3.31821 30.6818 1.89967 28.9369 1.01067C26.9535 0 24.3568 0 19.1636 0H14.8364C9.64316 0 7.04655 0 5.063 1.01067C3.31821 1.89967 1.89967 3.31821 1.01067 5.063ZM19.1636 3.09091H14.8364C12.1888 3.09091 10.3889 3.09332 8.99776 3.20697C7.64264 3.31769 6.94966 3.51837 6.46624 3.76468C5.30306 4.35736 4.35736 5.30306 3.76468 6.46624C3.51837 6.94966 3.31769 7.64264 3.20697 8.99776C3.09332 10.3889 3.09091 12.1888 3.09091 14.8364V19.1636C3.09091 21.8113 3.09332 23.611 3.20697 25.0022C3.31769 26.3574 3.51837 27.0504 3.76468 27.5338C4.35736 28.6969 5.30306 29.6426 6.46624 30.2353C6.94966 30.4816 7.64264 30.6824 8.99776 30.793C10.3889 30.9066 12.1888 30.9091 14.8364 30.9091H19.1636C21.8113 30.9091 23.611 30.9066 25.0022 30.793C26.3574 30.6824 27.0504 30.4816 27.5338 30.2353C28.6969 29.6426 29.6426 28.6969 30.2353 27.5338C30.4816 27.0504 30.6824 26.3574 30.793 25.0022C30.9066 23.611 30.9091 21.8113 30.9091 19.1636V14.8364C30.9091 12.1888 30.9066 10.3889 30.793 8.99776C30.6824 7.64264 30.4816 6.94966 30.2353 6.46624C29.6426 5.30306 28.6969 4.35736 27.5338 3.76468C27.0504 3.51837 26.3574 3.31769 25.0022 3.20697C23.611 3.09332 21.8113 3.09091 19.1636 3.09091Z" fill="#FF3131"/>
</svg>
